<svg xmlns="http://www.w3.org/2000/svg" width="253" height="223" viewBox="0 0 253 223" fill="none">
  <path d="M59.5866 220.534H41.2653C33.8747 220.645 31.9452 218.98 31.8152 213.446V122.489L126.316 42.163L220.818 122.489V213.446C220.801 219.14 218.972 220.395 213.73 220.534H188.049M5.8273 104.77C9.3711 101.226 123.954 2 126.316 2C128.679 2 247.987 104.77 247.987 104.77C247.987 104.77 253.893 109.495 249.168 115.401C244.443 121.308 237.355 115.401 237.355 115.401C237.355 115.401 128.679 22.0815 126.316 22.0815C123.954 22.0815 15.2774 115.401 15.2774 115.401C15.2774 115.401 9.37109 121.308 4.64603 116.583C-0.0790243 111.858 2.2835 108.314 5.8273 104.77Z" stroke="#FCFBFA" stroke-width="3.6"/>
</svg>